<svg width="120" height="24" viewBox="0 0 120 24" fill="none" xmlns="http://www.w3.org/2000/svg">
<path d="M0 23V6H1V23H0Z" fill="black"/>
<path d="M3 23V6H5V23H3Z" fill="black"/>
<path d="M7 23V6H11V23H7Z" fill="black"/>
<path d="M15 6.14062H20L23.5469 18.7031L27.1719 6.14062H31.9531L25.8125 23.1719H21.1094L15 6.14062Z" fill="black"/>
<path d="M32.885 7.98438C34.0621 6.48438 36.0829 5.73438 38.9475 5.73438C40.8121 5.73438 42.4683 6.10417 43.9163 6.84375C45.3642 7.58333 46.0881 8.97917 46.0881 11.0312V18.8438C46.0881 19.3854 46.0985 20.0417 46.1194 20.8125C46.1506 21.3958 46.2392 21.7917 46.385 22C46.5308 22.2083 46.7496 22.3802 47.0413 22.5156V23.1719H42.1975C42.0621 22.8281 41.9683 22.5052 41.9163 22.2031C41.8642 21.901 41.8225 21.5573 41.7913 21.1719C41.1767 21.8385 40.4683 22.4062 39.6663 22.875C38.7079 23.4271 37.6246 23.7031 36.4163 23.7031C34.8746 23.7031 33.5985 23.2656 32.5881 22.3906C31.5881 21.5052 31.0881 20.2552 31.0881 18.6406C31.0881 16.5469 31.8954 15.0312 33.51 14.0938C34.3954 13.5833 35.6975 13.2188 37.4163 13L38.9319 12.8125C39.7548 12.7083 40.3433 12.5781 40.6975 12.4219C41.3329 12.151 41.6506 11.7292 41.6506 11.1562C41.6506 10.4583 41.4058 9.97917 40.9163 9.71875C40.4371 9.44792 39.7288 9.3125 38.7913 9.3125C37.7392 9.3125 36.9944 9.57292 36.5569 10.0938C36.2444 10.4792 36.036 11 35.9319 11.6562H31.635C31.7288 10.1667 32.1454 8.94271 32.885 7.98438ZM36.1975 19.9531C36.6142 20.2969 37.1246 20.4688 37.7288 20.4688C38.6871 20.4688 39.5673 20.1875 40.3694 19.625C41.1819 19.0625 41.6038 18.0365 41.635 16.5469V14.8906C41.3538 15.0677 41.0673 15.2135 40.7756 15.3281C40.4944 15.4323 40.1038 15.5312 39.6038 15.625L38.6038 15.8125C37.6663 15.9792 36.9944 16.1823 36.5881 16.4219C35.9006 16.8281 35.5569 17.4583 35.5569 18.3125C35.5569 19.0729 35.7704 19.6198 36.1975 19.9531Z" fill="black"/>
<path d="M56.3794 10.25C54.5877 10.25 53.3846 10.8333 52.77 12C52.4263 12.6562 52.2544 13.6667 52.2544 15.0312V23.1719H47.77V6.14062H52.02V9.10938C52.7075 7.97396 53.3065 7.19792 53.8169 6.78125C54.6502 6.08333 55.7335 5.73438 57.0669 5.73438C57.1502 5.73438 57.2179 5.73958 57.27 5.75C57.3325 5.75 57.4627 5.75521 57.6606 5.76562V10.3281C57.3794 10.2969 57.1294 10.276 56.9106 10.2656C56.6919 10.2552 56.5148 10.25 56.3794 10.25Z" fill="black"/>
<path d="M62.6237 6.14062V23.1719H58.1081V6.14062H62.6237ZM62.6237 0V4.10938H58.1081V0H62.6237Z" fill="black"/>
<path d="M65.3525 7.98438C66.5296 6.48438 68.5504 5.73438 71.415 5.73438C73.2796 5.73438 74.9358 6.10417 76.3838 6.84375C77.8317 7.58333 78.5556 8.97917 78.5556 11.0312V18.8438C78.5556 19.3854 78.566 20.0417 78.5869 20.8125C78.6181 21.3958 78.7067 21.7917 78.8525 22C78.9983 22.2083 79.2171 22.3802 79.5088 22.5156V23.1719H74.665C74.5296 22.8281 74.4358 22.5052 74.3838 22.2031C74.3317 21.901 74.29 21.5573 74.2588 21.1719C73.6442 21.8385 72.9358 22.4062 72.1338 22.875C71.1754 23.4271 70.0921 23.7031 68.8838 23.7031C67.3421 23.7031 66.066 23.2656 65.0556 22.3906C64.0556 21.5052 63.5556 20.2552 63.5556 18.6406C63.5556 16.5469 64.3629 15.0312 65.9775 14.0938C66.8629 13.5833 68.165 13.2188 69.8838 13L71.3994 12.8125C72.2223 12.7083 72.8108 12.5781 73.165 12.4219C73.8004 12.151 74.1181 11.7292 74.1181 11.1562C74.1181 10.4583 73.8733 9.97917 73.3838 9.71875C72.9046 9.44792 72.1963 9.3125 71.2588 9.3125C70.2067 9.3125 69.4619 9.57292 69.0244 10.0938C68.7119 10.4792 68.5035 11 68.3994 11.6562H64.1025C64.1963 10.1667 64.6129 8.94271 65.3525 7.98438ZM68.665 19.9531C69.0817 20.2969 69.5921 20.4688 70.1963 20.4688C71.1546 20.4688 72.0348 20.1875 72.8369 19.625C73.6494 19.0625 74.0713 18.0365 74.1025 16.5469V14.8906C73.8213 15.0677 73.5348 15.2135 73.2431 15.3281C72.9619 15.4323 72.5713 15.5312 72.0713 15.625L71.0713 15.8125C70.1338 15.9792 69.4619 16.1823 69.0556 16.4219C68.3681 16.8281 68.0244 17.4583 68.0244 18.3125C68.0244 19.0729 68.2379 19.6198 68.665 19.9531Z" fill="black"/>
<path d="M89.5344 23.625C88.1281 23.625 86.9979 23.3438 86.1438 22.7812C85.6333 22.4479 85.0813 21.8646 84.4875 21.0312V23.1719H80.1281V0.171875H84.5656V8.35938C85.1281 7.56771 85.7479 6.96354 86.425 6.54688C87.2271 6.02604 88.2479 5.76562 89.4875 5.76562C91.7271 5.76562 93.4771 6.57292 94.7375 8.1875C96.0083 9.80208 96.6438 11.8854 96.6438 14.4375C96.6438 17.0833 96.0188 19.276 94.7688 21.0156C93.5188 22.7552 91.774 23.625 89.5344 23.625ZM91.9719 14.9062C91.9719 13.6979 91.8156 12.6979 91.5031 11.9062C90.9094 10.4062 89.8156 9.65625 88.2219 9.65625C86.6073 9.65625 85.4979 10.3906 84.8938 11.8594C84.5813 12.6406 84.425 13.651 84.425 14.8906C84.425 16.349 84.7479 17.5573 85.3938 18.5156C86.0396 19.474 87.024 19.9531 88.3469 19.9531C89.4927 19.9531 90.3833 19.4896 91.0188 18.5625C91.6542 17.6354 91.9719 16.4167 91.9719 14.9062Z" fill="black"/>
<path d="M97.7006 0.140625H102.154V23.1719H97.7006V0.140625Z" fill="black"/>
<path d="M118.851 18.1719C118.737 19.1823 118.211 20.2083 117.273 21.25C115.815 22.9062 113.773 23.7344 111.148 23.7344C108.981 23.7344 107.07 23.0365 105.414 21.6406C103.757 20.2448 102.929 17.974 102.929 14.8281C102.929 11.8802 103.674 9.61979 105.164 8.04688C106.664 6.47396 108.606 5.6875 110.992 5.6875C112.409 5.6875 113.685 5.95312 114.82 6.48438C115.955 7.01562 116.893 7.85417 117.632 9C118.299 10.0104 118.731 11.1823 118.929 12.5156C119.044 13.2969 119.091 14.4219 119.07 15.8906H107.414C107.476 17.599 108.013 18.7969 109.023 19.4844C109.638 19.9115 110.377 20.125 111.242 20.125C112.159 20.125 112.903 19.8646 113.476 19.3438C113.789 19.0625 114.065 18.6719 114.304 18.1719H118.851ZM114.445 12.9531C114.372 11.776 114.013 10.8854 113.367 10.2812C112.731 9.66667 111.94 9.35938 110.992 9.35938C109.961 9.35938 109.159 9.68229 108.586 10.3281C108.023 10.974 107.669 11.849 107.523 12.9531H114.445Z" fill="black"/>
</svg>
